<?xml version="1.0" standalone="no"?>
<!DOCTYPE svg PUBLIC "-//W3C//DTD SVG 20010904//EN"
 "http://www.w3.org/TR/2001/REC-SVG-20010904/DTD/svg10.dtd">
<svg version="1.0" xmlns="http://www.w3.org/2000/svg"
 width="46.000000pt" height="34.000000pt" viewBox="0 0 46.000000 34.000000"
 preserveAspectRatio="xMidYMid meet">
<metadata>
Created by potrace 1.10, written by Peter Selinger 2001-2011
</metadata>
<g transform="translate(0.000000,34.000000) scale(0.100000,-0.100000)"
fill="#000000" stroke="none">
<path d="M273 323 c-5 -12 10 -32 55 -73 34 -31 62 -58 62 -60 0 -3 -87 -5
-192 -5 -165 0 -193 -2 -193 -15 0 -13 28 -15 193 -15 105 0 192 -2 192 -4 0
-2 -28 -29 -62 -60 -45 -42 -60 -62 -55 -74 3 -9 10 -17 14 -17 5 0 46 38 93
85 l85 85 -85 85 c-47 47 -88 85 -93 85 -4 0 -11 -8 -14 -17z"/>
</g>
</svg>
